# xmcd
#
# Track frame offsets:
#	183
#	11698
#	20755
#	31963
#	42355
#	57935
#	71823
#	87150
#	99310
#	111003
#	122908
#	139575
#	154428
#	173983
#	188928
#	204248
#	217358
#	228118
#	239383
#	250965
#	263433
#	274885
#	287480
#	299573
#
# Disc length: 4143
#
# Revision: 3
# Processed by: cddbd v1.5.1PL0 Copyright (c) Steve Scherf et al.
# Submitted via: EasyCDDAExtractor 5.1.0
# Normalized: r2:DSETVAR1
#
DISCID=68102d18
DTITLE=Various Artist - Anthologie de la chanson francaise_1960
DYEAR=1960
DGENRE=Chanson
TTITLE0=Richard Anthony - Nouvelle vague
TTITLE1=Johnny Halliday - Souvenirs souvenirs
TTITLE2=Johnny Halliday - T'aimer follement
TTITLE3=Jean Philippe - Oui oui oui oui
TTITLE4=Sacha Distell - Mon beau chapeau
TTITLE5=Jacqueline Boyer - Tom Pilibi
TTITLE6=Jacqueline Boyer - Comme au premier jour
TTITLE7=Robert Jeantal - L'arlequin de Tolède
TTITLE8=Dalida - Les enfants du Pirée
TTITLE9=Joel Holmes - Jean-Marie de Pantin
TTITLE10=François Deguelt - Les voiliers
TTITLE11=Georges Brassens - L'orage
TTITLE12=Guy Béart - La Chabraque
TTITLE13=Guy Béart - Grenades grenades
TTITLE14=Juliette Gréco - Il n'y a plus D'après
TTITLE15=Gilbert Bécaud - Marie Marie
TTITLE16=Les DJinns - Pilou pilou he
TTITLE17=Marcel Amont - Les bleuets d'azur
TTITLE18=Marcel Amont - Bleu blanc blond
TTITLE19=Bob Azzam - Mustapha
TTITLE20=Pierre Perret - Le bonheur conjugal
TTITLE21=Pierre Perret - La Bérésina
TTITLE22=Bobby Lapointe - Framboise
TTITLE23=Bobby Lapointe - Le poisson fa
EXTD=YEAR: 1960
EXTT0=
EXTT1=
EXTT2=
EXTT3=
EXTT4=
EXTT5=
EXTT6=
EXTT7=
EXTT8=
EXTT9=
EXTT10=
EXTT11=
EXTT12=
EXTT13=
EXTT14=
EXTT15=
EXTT16=
EXTT17=
EXTT18=
EXTT19=
EXTT20=
EXTT21=
EXTT22=
EXTT23=
PLAYORDER=
